<svg xmlns="http://www.w3.org/2000/svg" viewBox="0 0 24 24" id="docker"><path fill="#364548" d="M12.465 9.139h2.452v2.507h1.24c.573 0 1.161-.102 1.704-.286.266-.09.565-.216.828-.374-.346-.452-.523-1.022-.575-1.585-.071-.765.084-1.761.601-2.36l.258-.298.307.247c.773.621 1.424 1.489 1.538 2.479.931-.274 2.024-.209 2.845.265l.337.194-.177.346c-.694 1.355-2.145 1.774-3.564 1.7-2.123 5.288-6.745 7.791-12.349 7.791-2.895 0-5.552-1.082-7.064-3.651l-.025-.042-.221-.448c-.511-1.131-.681-2.369-.566-3.607l.035-.371h2.097V9.139h2.452V6.687h4.904V4.235h2.943v4.904z"></path><path fill="#22A0C8" d="M20.409 10.067c.164-1.278-.792-2.281-1.385-2.758-.683.79-.79 2.861.283 3.733-.598.531-1.859 1.013-3.15 1.013H.442c-.125 1.348.111 2.589.651 3.651l.179.327c.113.192.237.378.37.556.646.042 1.242.056 1.787.044 1.071-.024 1.945-.15 2.607-.38a.189.189 0 0 1 .123.356c-.088.031-.18.059-.275.086a8.22 8.22 0 0 1-1.802.294c.043.001-.045.006-.045.006l-.08.006c-.284.016-.59.019-.904.019-.343 0-.68-.006-1.058-.026l-.01.006c1.309 1.472 3.357 2.354 5.923 2.354 5.431 0 10.038-2.408 12.078-7.813 1.447.149 2.838-.221 3.471-1.456-1.006-.579-2.302-.394-3.048-.018z"></path><path fill="#37B1D9" d="M20.409 10.067c.164-1.278-.792-2.281-1.385-2.758-.683.79-.79 2.861.283 3.733-.598.531-1.859 1.013-3.15 1.013H1.372c-.064 2.064.702 3.63 2.057 4.578 1.071-.024 1.945-.15 2.607-.38a.189.189 0 0 1 .123.356c-.088.031-.18.059-.275.086a8.585 8.585 0 0 1-1.85.306l-.018-.017c1.848.948 4.529.945 7.601-.236 3.445-1.324 6.652-3.845 8.889-6.73l-.097.049z"></path><path fill="#1B81A5" d="M.471 13.692c.098.722.309 1.398.622 2.013l.179.327c.113.192.237.378.37.556.646.042 1.242.056 1.787.044 1.071-.024 1.945-.15 2.607-.38a.189.189 0 0 1 .123.356c-.088.031-.18.059-.275.086a8.581 8.581 0 0 1-1.847.3c-.025.002-.068.002-.093.003-.284.016-.587.026-.901.026-.343 0-.693-.007-1.07-.026 1.309 1.472 3.369 2.358 5.936 2.358 4.65 0 8.695-1.765 11.043-5.664H.471v.001z"></path><path fill="#1D91B4" d="M1.514 13.692c.278 1.268.946 2.263 1.916 2.94 1.071-.024 1.945-.15 2.607-.38a.189.189 0 0 1 .123.356c-.088.031-.18.059-.275.086a8.701 8.701 0 0 1-1.86.3c1.848.948 4.521.934 7.593-.246 1.859-.714 3.648-1.777 5.253-3.058H1.514v.002z"></path><path fill="#23A3C2" d="M2.575 9.548H4.7v2.125H2.575V9.548zm.177.177h.168v1.771h-.168V9.725zm.315 0h.174v1.771h-.174V9.725zm.322 0h.174v1.771h-.174V9.725zm.322 0h.174v1.771h-.174V9.725zm.322 0h.174v1.771h-.174V9.725zm.322 0h.168v1.771h-.168V9.725zm.672-2.629h2.125v2.125H5.026l.001-2.125zm.177.177h.168v1.771h-.168V7.273zm.315 0h.174v1.771h-.174V7.273zm.322 0h.174v1.771h-.174V7.273zm.322 0h.174v1.771h-.174V7.273zm.322 0h.174v1.771h-.174V7.273zm.322 0h.168v1.771h-.168V7.273z"></path><path fill="#34BBDE" d="M5.027 9.548h2.125v2.125H5.026l.001-2.125zm.177.177h.168v1.771h-.168V9.725zm.315 0h.174v1.771h-.174V9.725zm.322 0h.174v1.771h-.174V9.725zm.322 0h.174v1.771h-.174V9.725zm.322 0h.174v1.771h-.174V9.725zm.322 0h.168v1.771h-.168V9.725z"></path><path fill="#23A3C2" d="M7.479 9.548h2.125v2.125H7.479V9.548zm.177.177h.168v1.771h-.168V9.725zm.315 0h.174v1.771h-.174V9.725zm.322 0h.174v1.771h-.174V9.725zm.322 0h.174v1.771h-.174V9.725zm.322 0h.175v1.771h-.175V9.725zm.322 0h.168v1.771h-.168V9.725z"></path><path fill="#34BBDE" d="M7.479 7.096h2.125v2.125H7.479V7.096zm.177.177h.168v1.771h-.168V7.273zm.315 0h.174v1.771h-.174V7.273zm.322 0h.174v1.771h-.174V7.273zm.322 0h.174v1.771h-.174V7.273zm.322 0h.175v1.771h-.175V7.273zm.322 0h.168v1.771h-.168V7.273zm.672 2.275h2.125v2.125H9.931V9.548zm.177.177h.168v1.771h-.168V9.725zm.315 0h.174v1.771h-.174V9.725zm.322 0h.174v1.771h-.174V9.725zm.322 0h.174v1.771h-.174V9.725zm.322 0h.174v1.771h-.174V9.725zm.322 0h.168v1.771h-.168V9.725z"></path><path fill="#23A3C2" d="M9.931 7.096h2.125v2.125H9.931V7.096zm.177.177h.168v1.771h-.168V7.273zm.315 0h.174v1.771h-.174V7.273zm.322 0h.174v1.771h-.174V7.273zm.322 0h.174v1.771h-.174V7.273zm.322 0h.174v1.771h-.174V7.273zm.322 0h.168v1.771h-.168V7.273z"></path><path fill="#34BBDE" d="M9.931 4.644h2.125v2.125H9.931V4.644zm.177.177h.168v1.771h-.168V4.821zm.315 0h.174v1.771h-.174V4.821zm.322 0h.174v1.771h-.174V4.821zm.322 0h.174v1.771h-.174V4.821zm.322 0h.174v1.771h-.174V4.821zm.322 0h.168v1.771h-.168V4.821z"></path><path fill="#23A3C2" d="M12.383 9.548h2.125v2.125h-2.125V9.548zm.177.177h.168v1.771h-.168V9.725zm.315 0h.174v1.771h-.174V9.725zm.322 0h.174v1.771h-.174V9.725zm.322 0h.174v1.771h-.174V9.725zm.322 0h.174v1.771h-.174V9.725zm.322 0h.168v1.771h-.168V9.725z"></path><path fill="#D3ECEC" d="M7.019 15.119a.586.586 0 1 1 .015 1.173h-.016a.587.587 0 0 1 .001-1.173z"></path><path fill="#364548" d="M7.019 15.285c.054 0 .105.01.152.028a.17.17 0 0 0 .086.319.17.17 0 0 0 .15-.089.42.42 0 1 1-.388-.258z"></path><path fill="#BDD9D7" d="M8.577 19.343c-1.452-.689-2.249-1.626-2.692-2.648-.539.154-1.188.252-1.941.295-.284.016-.582.024-.895.024-.361 0-.742-.011-1.141-.032 1.332 1.331 2.97 2.355 6.003 2.374.223 0 .445-.004.666-.013z"></path><path fill="#D3ECEC" d="M6.424 17.639a5.055 5.055 0 0 1-.539-.944c-.539.154-1.188.253-1.941.295.518.281 1.258.541 2.48.649z"></path></svg>