<?xml version="1.0" encoding="UTF-8" standalone="no"?>
<!DOCTYPE svg PUBLIC "-//W3C//DTD SVG 1.1//EN" "http://www.w3.org/Graphics/SVG/1.1/DTD/svg11.dtd">
<svg xmlns="http://www.w3.org/2000/svg" version="1.1" viewBox="0.00 0.00 745.00 281.00">
<path fill="#000000" d="
  M 77.94 191.03
  C 84.12 197.04 93.67 196.49 99.30 190.04
  C 104.20 184.43 104.37 175.08 97.84 170.27
  Q 94.20 167.58 90.40 165.88
  Q 78.25 160.43 66.33 155.42
  C 51.73 149.28 38.33 137.39 35.88 121.22
  C 33.45 105.19 39.61 90.22 52.86 80.60
  C 72.39 66.42 101.07 64.65 121.48 78.29
  Q 140.45 90.96 140.70 116.24
  Q 140.71 116.75 140.20 116.75
  L 102.44 116.75
  Q 101.75 116.75 101.68 116.06
  C 100.74 107.30 96.28 101.50 86.88 102.02
  Q 83.19 102.22 79.75 104.45
  C 73.34 108.60 72.53 118.59 78.88 123.24
  C 80.39 124.35 82.01 125.56 83.67 126.41
  Q 94.85 132.13 107.10 137.51
  C 116.77 141.75 126.50 147.43 133.36 155.36
  C 140.58 163.70 142.62 173.85 141.92 184.71
  C 140.52 206.42 127.75 221.47 105.97 226.39
  Q 90.82 229.81 73.55 226.92
  C 51.56 223.25 36.17 208.51 33.52 185.74
  Q 32.99 181.23 33.28 174.87
  Q 33.31 174.25 33.94 174.25
  L 71.70 174.25
  A 0.56 0.56 0.0 0 1 72.26 174.80
  C 72.34 180.70 73.81 187.02 77.94 191.03
  Z"
/>
<path fill="#000000" d="
  M 178.42 106.50
  L 148.83 106.50
  A 0.33 0.33 0.0 0 1 148.50 106.17
  L 148.50 72.33
  A 0.33 0.33 0.0 0 1 148.83 72.00
  L 247.92 72.00
  A 0.33 0.33 0.0 0 1 248.25 72.33
  L 248.25 106.17
  A 0.33 0.33 0.0 0 1 247.92 106.50
  L 218.58 106.50
  A 0.33 0.33 0.0 0 0 218.25 106.83
  L 218.25 224.92
  A 0.33 0.33 0.0 0 1 217.92 225.25
  L 179.08 225.25
  A 0.33 0.33 0.0 0 1 178.75 224.92
  L 178.75 106.83
  A 0.33 0.33 0.0 0 0 178.42 106.50
  Z"
/>
<rect fill="#000000" x="415.25" y="72.00" width="39.50" height="153.24" rx="0.35"/>
<path fill="#000000" d="
  M 520.00 176.78
  L 520.00 224.75
  Q 520.00 225.25 519.50 225.25
  L 482.50 225.25
  Q 482.25 225.25 482.25 225.00
  L 482.25 72.55
  Q 482.25 72.02 482.78 72.02
  Q 518.52 71.91 539.29 72.06
  Q 547.30 72.12 556.14 73.52
  C 572.33 76.10 585.03 85.71 591.70 100.49
  C 598.53 115.62 598.71 133.09 591.77 148.21
  C 585.64 161.59 574.26 170.43 559.65 172.96
  A 0.41 0.41 0.0 0 0 559.40 173.62
  L 600.09 224.63
  Q 600.58 225.25 599.79 225.25
  L 555.96 225.25
  Q 555.43 225.25 555.12 224.82
  L 520.61 176.58
  Q 520.00 175.73 520.00 176.78
  Z
  M 520.06 107.09
  L 519.92 148.19
  A 0.62 0.62 0.0 0 0 520.54 148.81
  L 537.13 148.87
  A 22.01 19.96 0.2 0 0 559.21 128.99
  L 559.21 126.57
  A 22.01 19.96 0.2 0 0 537.27 106.53
  L 520.68 106.47
  A 0.62 0.62 0.0 0 0 520.06 107.09
  Z"
/>
<path fill="#000000" d="
  M 714.79 176.36
  C 716.77 197.72 707.71 216.63 687.22 224.20
  Q 673.00 229.45 654.51 227.83
  C 630.42 225.71 612.30 212.78 608.62 187.49
  Q 607.92 182.69 608.31 175.84
  Q 608.34 175.25 608.94 175.25
  L 645.95 175.25
  Q 646.56 175.25 646.59 175.85
  C 646.84 180.41 647.28 184.31 649.57 188.32
  C 656.80 200.95 675.55 196.68 676.57 182.08
  C 677.18 173.31 669.98 169.43 662.80 166.25
  Q 652.43 161.66 642.50 157.55
  C 623.40 149.64 609.08 135.41 610.53 113.24
  C 612.36 85.26 641.39 70.80 666.30 71.99
  C 692.70 73.26 714.05 90.13 713.71 118.11
  Q 713.71 118.75 713.07 118.75
  L 676.06 118.75
  Q 675.61 118.75 675.55 118.31
  C 674.48 111.18 672.02 105.43 664.24 104.39
  C 655.84 103.28 647.84 108.93 648.95 118.00
  Q 649.49 122.40 653.04 125.10
  Q 657.09 128.17 661.83 130.38
  Q 673.01 135.61 683.76 140.55
  C 699.30 147.69 713.13 158.40 714.79 176.36
  Z"
/>
<path fill="#5bc187" d="
  M 292.00 140.50
  L 292.00 160.73
  Q 292.00 161.21 292.48 161.21
  L 344.02 161.21
  A 0.48 0.48 0.0 0 0 344.50 160.73
  L 344.50 140.25
  Q 344.50 139.75 344.00 139.75
  L 326.21 139.75
  A 2.65 2.65 0.0 0 1 323.66 137.83
  Q 323.26 136.42 323.67 134.72
  Q 324.08 133.00 325.84 133.00
  L 328.59 133.00
  Q 329.18 133.00 329.19 132.41
  L 329.84 74.04
  Q 329.85 72.98 330.31 73.93
  L 403.19 223.82
  Q 403.52 224.50 402.76 224.50
  L 329.25 224.50
  Q 325.97 224.50 326.22 221.22
  Q 326.25 220.77 326.32 220.30
  Q 326.69 217.75 329.27 217.75
  L 375.00 217.75
  Q 375.25 217.75 375.25 217.50
  L 375.25 196.75
  Q 375.25 196.25 374.75 196.25
  L 337.99 196.25
  Q 334.76 196.25 334.81 193.02
  Q 334.81 192.85 334.81 192.69
  Q 334.78 189.50 337.98 189.50
  L 359.50 189.50
  Q 360.00 189.50 360.00 189.00
  L 360.00 168.50
  Q 360.00 168.00 359.50 168.00
  L 277.00 168.00
  Q 276.50 168.00 276.50 168.50
  L 276.50 189.00
  Q 276.50 189.50 277.00 189.50
  L 298.61 189.50
  Q 301.73 189.50 301.75 192.61
  L 301.76 193.23
  Q 301.79 196.25 298.77 196.25
  L 261.75 196.25
  Q 261.25 196.25 261.25 196.75
  L 261.25 217.50
  Q 261.25 218.00 261.75 218.00
  L 307.75 218.00
  Q 310.26 218.00 310.25 220.51
  L 310.25 222.01
  Q 310.24 224.50 307.75 224.50
  L 235.54 224.50
  Q 235.02 224.50 235.24 224.03
  L 307.32 74.69
  Q 308.08 73.11 308.06 74.86
  L 307.41 132.45
  Q 307.41 132.98 307.95 132.99
  L 311.17 133.02
  Q 311.75 133.03 312.11 133.48
  Q 313.90 135.76 312.63 138.51
  Q 312.06 139.75 310.69 139.75
  L 292.75 139.75
  Q 292.00 139.75 292.00 140.50
  Z"
/>
<ellipse fill="#5bc187" cx="0.00" cy="0.00" transform="translate(318.31,136.34) rotate(90.2)" rx="3.54" ry="2.46"/>
<rect fill="#5bc187" x="-5.26" y="-3.38" transform="translate(312.83,192.90) rotate(0.6)" width="10.52" height="6.76" rx="2.74"/>
<rect fill="#5bc187" x="-5.17" y="-3.37" transform="translate(323.76,192.88) rotate(-0.1)" width="10.34" height="6.74" rx="2.55"/>
</svg>
